<?xml version="1.0" encoding="utf-8"?>
<!-- Generator: Adobe Illustrator 16.0.0, SVG Export Plug-In . SVG Version: 6.00 Build 0)  -->
<!DOCTYPE svg PUBLIC "-//W3C//DTD SVG 1.1//EN" "http://www.w3.org/Graphics/SVG/1.1/DTD/svg11.dtd">
<svg version="1.1" xmlns="http://www.w3.org/2000/svg" xmlns:xlink="http://www.w3.org/1999/xlink" x="0px" y="0px"
	 width="55.254px" height="55.254px" viewBox="0 0 55.254 55.254" enable-background="new 0 0 55.254 55.254" xml:space="preserve">
<g id="Layer_1" display="none">
	<rect display="inline" fill="#FBB040" width="55.254" height="18.412"/>
	<rect y="36.842" display="inline" fill="#594A42" width="55.254" height="18.412"/>
	<rect y="18.422" display="inline" fill="#8DC63F" width="55.254" height="18.411"/>
	<path display="inline" fill="#FFFFFF" d="M27.627,7.348c-11.033,0-19.977,8.944-19.977,19.977c0,11.034,8.944,19.978,19.977,19.978
		s19.978-8.944,19.978-19.978C47.604,16.292,38.66,7.348,27.627,7.348"/>
	<rect display="inline" fill="none" width="55.254" height="55.254"/>
</g>
<g id="Layer_2">
	<rect fill="#684D3F" width="55.254" height="25.087"/>
	<rect y="36.833" fill="#FDBC67" width="55.254" height="18.412"/>
	<rect y="23.087" fill="#79C255" width="55.254" height="13.746"/>
	<path fill="#FFFFFF" d="M27.627,7.348c-11.033,0-19.977,8.944-19.977,19.977c0,11.034,8.944,19.978,19.977,19.978
		s19.978-8.944,19.978-19.978C47.604,16.292,38.66,7.348,27.627,7.348"/>
</g>
<g id="Layer_3">
	<path fill="#2D2D2D" d="M33.501,17.245c-2.22,0-4.346,0.919-5.874,2.528c-1.528-1.609-3.654-2.528-5.874-2.528
		c-4.465,0-8.099,3.633-8.099,8.098v1.484c0,3.731,1.454,7.241,4.093,9.88c2.64,2.639,6.147,4.092,9.88,4.092
		s7.241-1.453,9.88-4.092s4.093-6.148,4.093-9.88v-1.484C41.6,20.878,37.967,17.245,33.501,17.245L33.501,17.245z M27.627,36.352
		c-5.251,0-9.523-4.273-9.523-9.524v-1.484c0-2.013,1.637-3.649,3.649-3.649s3.649,1.637,3.649,3.649
		c0,1.18-0.547,2.256-1.501,2.952c-0.479,0.352-0.795,0.865-0.887,1.453c-0.091,0.588,0.052,1.176,0.401,1.654
		c0.351,0.48,0.867,0.795,1.454,0.887s1.175-0.051,1.654-0.4c0.396-0.289,0.765-0.615,1.103-0.971
		c0.337,0.355,0.707,0.682,1.104,0.971c0.479,0.35,1.066,0.492,1.653,0.4s1.104-0.406,1.454-0.887
		c0.351-0.479,0.492-1.066,0.4-1.654c-0.091-0.588-0.406-1.102-0.886-1.453c-0.954-0.696-1.501-1.772-1.501-2.952
		c0-2.013,1.637-3.649,3.649-3.649s3.649,1.637,3.649,3.649v1.484C37.15,32.078,32.879,36.352,27.627,36.352z"/>
</g>
</svg>
