<?xml version="1.0" encoding="utf-8"?>
<!-- Generator: Adobe Illustrator 16.0.0, SVG Export Plug-In . SVG Version: 6.00 Build 0)  -->
<!DOCTYPE svg PUBLIC "-//W3C//DTD SVG 1.1//EN" "http://www.w3.org/Graphics/SVG/1.1/DTD/svg11.dtd">
<svg version="1.1" xmlns="http://www.w3.org/2000/svg" xmlns:xlink="http://www.w3.org/1999/xlink" x="0px" y="0px"
	 width="50.082px" height="50.073px" viewBox="0 0 50.082 50.073" enable-background="new 0 0 50.082 50.073" xml:space="preserve">
<g id="Layer_1">
	<g id="Layer_2">
		<rect fill="#684D3F" width="50.082" height="22.739"/>
		<rect y="33.385" fill="#FDBC67" width="50.082" height="16.688"/>
		<rect y="20.926" fill="#79C255" width="50.082" height="12.459"/>
		<path fill="#FFFFFF" d="M25.041,4.661c-10,0-18.107,8.106-18.107,18.107c0,10.001,8.107,18.106,18.107,18.106
			c10,0,18.109-8.105,18.109-18.106C43.148,12.767,35.041,4.661,25.041,4.661"/>
	</g>
	<g id="Layer_3">
		<path fill="#2D2D2D" d="M30.365,12.348c-2.012,0-3.939,0.833-5.324,2.291c-1.385-1.458-3.312-2.291-5.324-2.291
			c-4.047,0-7.341,3.293-7.341,7.34v1.346c0,3.382,1.318,6.563,3.71,8.955c2.393,2.391,5.571,3.708,8.955,3.708
			c3.383,0,6.563-1.317,8.955-3.708c2.392-2.392,3.709-5.573,3.709-8.955v-1.346C37.705,15.641,34.413,12.348,30.365,12.348
			L30.365,12.348z M25.041,29.666c-4.759,0-8.632-3.872-8.632-8.632v-1.345c0-1.825,1.484-3.308,3.308-3.308
			s3.307,1.484,3.307,3.308c0,1.069-0.496,2.044-1.36,2.676c-0.435,0.319-0.721,0.784-0.804,1.317
			c-0.083,0.532,0.047,1.065,0.363,1.499c0.318,0.436,0.786,0.721,1.317,0.804c0.533,0.083,1.065-0.045,1.5-0.362
			c0.359-0.262,0.693-0.558,1-0.881c0.305,0.322,0.641,0.619,1.001,0.881c0.434,0.316,0.966,0.445,1.498,0.362
			s0.999-0.368,1.317-0.804c0.317-0.434,0.446-0.966,0.362-1.499c-0.082-0.534-0.368-1-0.803-1.317
			c-0.864-0.631-1.36-1.607-1.36-2.676c0-1.825,1.482-3.308,3.308-3.308c1.824,0,3.308,1.484,3.308,3.308v1.345
			C33.672,25.792,29.8,29.666,25.041,29.666z"/>
	</g>
	<rect x="2.488" y="42.789" fill="none" width="45.107" height="5.32"/>
	<text transform="matrix(1 0 0 1 2.4878 47.9893)" fill="#2D2D2D" font-family="'UnicaOne-Regular'" font-size="8">pretzelicious</text>
</g>
<g id="Layer_2_1_" display="none">
	<g display="inline">
		<path fill="#2D2D2D" d="M3.796,47.05h-0.56v-5.2h1.208c0.416,0,0.732,0.099,0.948,0.296s0.324,0.473,0.324,0.824v1.36
			c0,0.357-0.107,0.633-0.32,0.828c-0.213,0.194-0.531,0.292-0.952,0.292H3.796V47.05z M5.156,44.33v-1.36
			c0-0.202-0.062-0.36-0.184-0.472c-0.123-0.112-0.299-0.168-0.528-0.168H3.796v2.64h0.648C4.919,44.97,5.156,44.757,5.156,44.33z"
			/>
		<path fill="#2D2D2D" d="M7.556,47.05h-0.56v-5.2h0.24l0.232,0.592c0.17-0.475,0.443-0.712,0.816-0.712
			c0.635,0,0.952,0.347,0.952,1.04v0.521H8.7v-0.552c0-0.353-0.146-0.528-0.44-0.528c-0.176,0-0.337,0.102-0.484,0.304
			c-0.147,0.203-0.22,0.496-0.22,0.88V47.05z"/>
		<path fill="#2D2D2D" d="M12.156,46.05v-0.44h0.56v0.44c0,0.357-0.109,0.634-0.328,0.828c-0.219,0.194-0.547,0.292-0.984,0.292
			c-0.437,0-0.768-0.098-0.992-0.292s-0.336-0.471-0.336-0.828v-3.2c0-0.357,0.109-0.633,0.328-0.828
			c0.219-0.194,0.547-0.292,0.984-0.292c0.437,0,0.768,0.098,0.992,0.292c0.224,0.195,0.336,0.471,0.336,0.828v1.76h-2.08v1.44
			c0,0.427,0.253,0.64,0.76,0.64S12.156,46.477,12.156,46.05z M10.636,42.85v1.28h1.52v-1.28c0-0.427-0.253-0.64-0.76-0.64
			S10.636,42.423,10.636,42.85z"/>
		<path fill="#2D2D2D" d="M14.076,41.85h1.76v0.48h-1.2v3.832c0,0.149,0.039,0.274,0.116,0.376s0.187,0.151,0.328,0.151
			c0.141,0,0.249-0.049,0.324-0.147s0.112-0.226,0.112-0.38V45.21h0.56v0.92c0,0.336-0.089,0.594-0.268,0.771
			c-0.179,0.179-0.42,0.269-0.724,0.269s-0.548-0.09-0.732-0.269c-0.184-0.178-0.276-0.436-0.276-0.771V41.85z"/>
		<path fill="#2D2D2D" d="M16.796,42.33v-0.48h2.616v0.48l-2.152,4.239h2.112v0.48h-2.696v-0.48l2.152-4.239H16.796z"/>
		<path fill="#2D2D2D" d="M22.492,46.05v-0.44h0.56v0.44c0,0.357-0.109,0.634-0.328,0.828c-0.219,0.194-0.547,0.292-0.984,0.292
			c-0.437,0-0.768-0.098-0.992-0.292s-0.336-0.471-0.336-0.828v-3.2c0-0.357,0.109-0.633,0.328-0.828
			c0.219-0.194,0.547-0.292,0.984-0.292c0.437,0,0.768,0.098,0.992,0.292c0.224,0.195,0.336,0.471,0.336,0.828v1.76h-2.08v1.44
			c0,0.427,0.253,0.64,0.76,0.64S22.492,46.477,22.492,46.05z M20.972,42.85v1.28h1.52v-1.28c0-0.427-0.253-0.64-0.76-0.64
			S20.972,42.423,20.972,42.85z"/>
		<path fill="#2D2D2D" d="M24.532,47.05v-5.2h0.56v4.72h1.464v0.48H24.532z"/>
		<path fill="#2D2D2D" d="M28.076,47.05h-0.561v-5.2h0.561V47.05z"/>
		<path fill="#2D2D2D" d="M31.635,46.05v-0.44h0.561v0.44c0,0.357-0.109,0.634-0.328,0.828s-0.547,0.292-0.984,0.292
			s-0.768-0.098-0.992-0.292c-0.224-0.194-0.336-0.471-0.336-0.828v-3.2c0-0.357,0.109-0.633,0.328-0.828
			c0.219-0.194,0.547-0.292,0.984-0.292s0.768,0.098,0.992,0.292c0.224,0.195,0.336,0.471,0.336,0.828v0.76h-0.561v-0.76
			c0-0.427-0.253-0.64-0.76-0.64s-0.76,0.213-0.76,0.64v3.2c0,0.427,0.253,0.64,0.76,0.64S31.635,46.477,31.635,46.05z"/>
		<path fill="#2D2D2D" d="M34.156,47.05h-0.561v-5.2h0.561V47.05z"/>
		<path fill="#2D2D2D" d="M38.356,42.85v3.2c0,0.357-0.113,0.634-0.341,0.828C37.789,47.072,37.45,47.17,37,47.17
			c-0.451,0-0.791-0.098-1.02-0.292c-0.229-0.194-0.345-0.471-0.345-0.828v-3.2c0-0.357,0.113-0.633,0.34-0.828
			c0.228-0.194,0.565-0.292,1.017-0.292c0.45,0,0.79,0.098,1.02,0.292C38.241,42.217,38.356,42.492,38.356,42.85z M37.795,46.05
			v-3.2c0-0.427-0.267-0.64-0.8-0.64s-0.8,0.213-0.8,0.64v3.2c0,0.427,0.267,0.64,0.8,0.64S37.795,46.477,37.795,46.05z"/>
		<path fill="#2D2D2D" d="M39.755,46.05v-4.2h0.561v4.2c0,0.203,0.044,0.36,0.132,0.472c0.088,0.112,0.249,0.168,0.484,0.168
			c0.234,0,0.45-0.09,0.647-0.271s0.296-0.357,0.296-0.528v-4.04h0.561v5.2h-0.24l-0.208-0.512c-0.117,0.191-0.269,0.345-0.452,0.46
			c-0.184,0.114-0.386,0.172-0.604,0.172C40.148,47.17,39.755,46.797,39.755,46.05z"/>
		<path fill="#2D2D2D" d="M46.58,46.05c0,0.747-0.45,1.12-1.352,1.12s-1.353-0.373-1.353-1.12v-0.68h0.561v0.712
			c0,0.191,0.066,0.341,0.2,0.448c0.133,0.106,0.33,0.159,0.592,0.159c0.261,0,0.458-0.053,0.592-0.159
			c0.133-0.107,0.2-0.253,0.2-0.437s-0.021-0.331-0.061-0.44c-0.04-0.108-0.121-0.225-0.243-0.348l-1.408-1.376
			c-0.166-0.165-0.279-0.326-0.34-0.483c-0.062-0.158-0.093-0.356-0.093-0.597c0-0.357,0.111-0.633,0.332-0.828
			c0.222-0.194,0.557-0.292,1.004-0.292c0.859,0,1.288,0.374,1.288,1.12v0.681h-0.56v-0.713c0-0.191-0.063-0.341-0.188-0.447
			c-0.125-0.107-0.313-0.16-0.563-0.16c-0.251,0-0.438,0.053-0.564,0.16c-0.125,0.106-0.188,0.253-0.188,0.439
			s0.019,0.334,0.056,0.44s0.12,0.219,0.248,0.336l1.432,1.376c0.155,0.171,0.262,0.335,0.32,0.492S46.58,45.81,46.58,46.05z"/>
	</g>
</g>
</svg>
