<?xml version="1.0" encoding="utf-8"?>
<!-- Generator: Adobe Illustrator 16.0.0, SVG Export Plug-In . SVG Version: 6.00 Build 0)  -->
<!DOCTYPE svg PUBLIC "-//W3C//DTD SVG 1.1//EN" "http://www.w3.org/Graphics/SVG/1.1/DTD/svg11.dtd">
<svg version="1.1" xmlns="http://www.w3.org/2000/svg" xmlns:xlink="http://www.w3.org/1999/xlink" x="0px" y="0px"
	 width="55.254px" height="55.254px" viewBox="0 0 55.254 55.254" enable-background="new 0 0 55.254 55.254" xml:space="preserve">
<g id="Layer_1">
	<rect fill="#FBB040" width="55.254" height="18.412"/>
	<rect y="36.842" fill="#594A42" width="55.254" height="18.412"/>
	<rect y="18.422" fill="#8DC63F" width="55.254" height="18.411"/>
	<path fill="#FFFFFF" d="M27.627,7.348c-11.033,0-19.977,8.944-19.977,19.977c0,11.034,8.944,19.978,19.977,19.978
		s19.978-8.944,19.978-19.978C47.604,16.292,38.66,7.348,27.627,7.348"/>
	<rect fill="none" width="55.254" height="55.254"/>
</g>
<g id="Layer_2">
	<rect fill="#684D3F" width="55.254" height="25.087"/>
	<rect y="36.833" fill="#FDBC67" width="55.254" height="18.412"/>
	<rect y="23.087" fill="#79C255" width="55.254" height="13.746"/>
	<path fill="#FFFFFF" d="M27.627,7.348c-11.033,0-19.977,8.944-19.977,19.977c0,11.034,8.944,19.978,19.977,19.978
		s19.978-8.944,19.978-19.978C47.604,16.292,38.66,7.348,27.627,7.348"/>
</g>
<g id="Layer_3">
	<path fill="#2D2D2D" d="M33.501,17.245c-2.22,0-4.346,0.919-5.874,2.528c-1.528-1.609-3.654-2.528-5.874-2.528
		c-4.465,0-8.099,3.633-8.099,8.098v1.484c0,3.731,1.454,7.241,4.093,9.88c2.64,2.639,6.147,4.092,9.88,4.092
		s7.241-1.453,9.88-4.092s4.093-6.148,4.093-9.88v-1.484C41.6,20.878,37.967,17.245,33.501,17.245L33.501,17.245z M27.627,36.352
		c-5.251,0-9.523-4.273-9.523-9.524v-1.484c0-2.013,1.637-3.649,3.649-3.649s3.649,1.637,3.649,3.649
		c0,1.18-0.547,2.256-1.501,2.952c-0.479,0.352-0.795,0.865-0.887,1.453c-0.091,0.588,0.052,1.176,0.401,1.654
		c0.351,0.48,0.867,0.795,1.454,0.887s1.175-0.051,1.654-0.4c0.396-0.289,0.765-0.615,1.103-0.971
		c0.337,0.355,0.707,0.682,1.104,0.971c0.479,0.35,1.066,0.492,1.653,0.4s1.104-0.406,1.454-0.887
		c0.351-0.479,0.492-1.066,0.4-1.654c-0.091-0.588-0.406-1.102-0.886-1.453c-0.954-0.696-1.501-1.772-1.501-2.952
		c0-2.013,1.637-3.649,3.649-3.649s3.649,1.637,3.649,3.649v1.484C37.15,32.078,32.879,36.352,27.627,36.352z"/>
</g>
<g id="Layer_4">
	<rect fill="#FDBC67" width="55.254" height="55.245"/>
</g>
<g id="Layer_5" display="none">
	<g display="inline">
		<g id="Burger_1_">
			<g>
				<path fill="#FFFFFF" d="M37.352,43.812H17.902c-3.729,0-6.762-3.031-6.762-6.76c0-0.533,0.432-0.965,0.966-0.965h31.042
					c0.534,0,0.966,0.432,0.966,0.965C44.114,40.78,41.08,43.812,37.352,43.812z"/>
			</g>
			<g>
				<path fill="#FFFFFF" d="M27.626,10.839c-9.054,0-16.485,5.634-16.485,12.559c0,0.534,0.432,0.966,0.966,0.966h31.042
					c0.534,0,0.966-0.432,0.966-0.966C44.114,16.474,36.683,10.839,27.626,10.839z M20.518,18.285l-1.933,1.932
					c-0.377,0.377-0.988,0.377-1.366,0c-0.377-0.377-0.377-0.988,0-1.366l1.932-1.933c0.379-0.377,0.99-0.377,1.367,0
					C20.895,17.297,20.895,17.908,20.518,18.285z M26.378,18.285l-1.932,1.932c-0.377,0.377-0.988,0.377-1.367,0
					c-0.377-0.377-0.377-0.988,0-1.366l1.933-1.933c0.377-0.377,0.988-0.377,1.366,0C26.755,17.297,26.755,17.908,26.378,18.285z
					 M32.175,18.285l-1.932,1.932c-0.377,0.377-0.988,0.377-1.369,0c-0.374-0.377-0.374-0.988,0-1.366l1.936-1.933
					c0.377-0.377,0.987-0.377,1.365,0C32.552,17.297,32.552,17.908,32.175,18.285z M37.498,18.285l-1.931,1.932
					c-0.378,0.377-0.991,0.377-1.369,0c-0.374-0.377-0.374-0.988,0-1.366l1.935-1.933c0.378-0.377,0.988-0.377,1.365,0
					C37.876,17.297,37.876,17.908,37.498,18.285z"/>
			</g>
		</g>
		<g id="Burger_4_">
			<g>
				<path fill="#FFFFFF" d="M12.106,28.292c0.463,0,0.87,0.059,1.217,0.156c-0.136,0.439-0.174,0.57-0.251,1.93
					c-0.251-0.096-0.56-0.153-0.966-0.153c-0.541,0-0.966-0.425-0.966-0.966S11.566,28.292,12.106,28.292z"/>
				<path fill="#FFFFFF" d="M44.114,29.259c0,0.541-0.425,0.966-0.966,0.966c-0.405,0-0.716,0.058-0.965,0.153
					c-0.022-0.371,0.016-1.062-0.253-1.93c0.349-0.098,0.755-0.156,1.218-0.156C43.689,28.292,44.114,28.718,44.114,29.259z"/>
			</g>
		</g>
		<path fill="#FFFFFF" d="M13.323,28.448c0.87,0.212,1.45,0.635,1.933,1.002c0.598,0.445,1.042,0.774,2.01,0.774
			c0.966,0,1.39-0.329,1.989-0.774c0.695-0.521,1.61-1.158,3.213-1.158c1.623,0,2.474,0.638,3.169,1.158
			c0.598,0.445,1.023,0.774,1.989,0.774c0.967,0,1.393-0.329,1.99-0.774c0.697-0.521,1.548-1.158,3.169-1.158
			c1.605,0,2.52,0.638,3.214,1.158c0.598,0.445,1.023,0.774,1.988,0.774c0.966,0,1.414-0.329,2.012-0.774
			c0.483-0.367,1.062-0.79,1.932-1.002c-0.205-0.76-0.544-1.461-0.979-2.087H14.303C13.867,26.987,13.528,27.688,13.323,28.448z"/>
		<path fill="#FFFFFF" d="M40.965,34.087c0.738-1.055,1.187-2.334,1.219-3.709c-0.388,0.138-0.679,0.368-1.027,0.621
			c-0.693,0.521-1.544,1.157-3.169,1.157c-1.602,0-2.452-0.637-3.146-1.157c-0.601-0.445-1.09-0.774-2.056-0.774
			s-1.41,0.329-2.009,0.774c-0.678,0.521-1.547,1.157-3.15,1.157c-1.602,0-2.471-0.637-3.148-1.157
			c-0.599-0.445-1.044-0.774-2.01-0.774c-0.965,0-1.455,0.329-2.054,0.774c-0.696,0.521-1.546,1.157-3.148,1.157
			c-1.624,0-2.473-0.637-3.17-1.157c-0.347-0.253-0.636-0.483-1.023-0.621c0.028,1.375,0.476,2.654,1.218,3.709H40.965z"/>
	</g>
</g>
<g id="Layer_6">
	<g>
		<path fill="#FFFFFF" d="M43.726,32.234H11.531c-1.302,0-2.356-0.959-2.356-2.139c0-1.182,1.054-2.139,2.356-2.139h32.195
			c1.302,0,2.355,0.957,2.355,2.139C46.081,31.275,45.027,32.234,43.726,32.234z"/>
		<g>
			<path fill="#FFFFFF" d="M36.108,17.334l1.401-1.697c-0.081-0.192-0.172-0.389-0.274-0.588c-0.903-1.769-2.83-4.133-6.88-5.358
				c-0.337-0.103-0.707-0.063-1.008,0.111c-0.3,0.175-0.496,0.46-0.534,0.781c-0.002,0.015-0.209,1.491-1.452,3.174
				c-1.428,1.932-3.582,3.347-6.417,4.22C31.993,22.107,36.067,17.383,36.108,17.334L36.108,17.334z"/>
			<g>
				<path fill="#FFFFFF" d="M19.997,46.135h3.514l-0.432-11.762h-4.378L19.997,46.135z"/>
				<path fill="#FFFFFF" d="M31.744,46.135h3.515l1.296-11.762h-4.378L31.744,46.135z"/>
				<path fill="#FFFFFF" d="M37.626,46.135h0.57c1.734,0,3.2-1.127,3.485-2.68l1.667-9.082h-4.426L37.626,46.135z"/>
				<path fill="#FFFFFF" d="M25.868,46.135h3.52l0.432-11.762h-4.384L25.868,46.135z"/>
				<path fill="#FFFFFF" d="M13.574,43.455c0.285,1.553,1.751,2.68,3.485,2.68h0.57l-1.296-11.762h-4.426L13.574,43.455z"/>
				<g>
					<path fill="#FFFFFF" d="M38.438,18.079l-0.445,0.539c-0.057,0.069-1.438,1.708-4.508,2.604
						c-1.331,0.388-2.783,0.583-4.333,0.583c-0.482,0-0.975-0.019-1.475-0.057c-2.572-0.194-5.39-0.895-8.375-2.08l-1.776-0.705
						c-0.694,0.273-1.493,0.657-2.279,1.183c-1.568,1.05-3.316,2.832-3.697,5.672h32.504c0.003-0.497-0.037-1.043-0.152-1.616
						C43.521,22.298,42.25,19.757,38.438,18.079z"/>
				</g>
			</g>
		</g>
	</g>
</g>
</svg>
